<svg
  xmlns="http://www.w3.org/2000/svg"
  viewBox="8 8 76.87259439839954 77.75378878113679"
  width="76.87259439839954"
  height="77.75378878113679"
>
  <defs>
    <style>
      .ink {
        stroke: #1e1e1e;
      }

      @media (prefers-color-scheme: dark) {
        .ink {
          stroke: #ffffff;
        }
      }
    </style>
  </defs>

  <g
    stroke-linecap="round"
    transform="translate(9.999999999999773 9.999999999999773) rotate(0 36.436297199199885 36.87689439056851)"
  >
    <path
      class="ink"
      d="M72.87 36.88 C72.87 38.8, 72.72 40.75, 72.42 42.65 C72.13 44.54, 71.68 46.44, 71.09 48.27 C70.5 50.1, 69.76 51.91, 68.9 53.62 C68.04 55.33, 67.03 57, 65.91 58.55 C64.8 60.11, 63.54 61.59, 62.2 62.95 C60.86 64.31, 59.39 65.58, 57.85 66.71 C56.32 67.84, 54.67 68.86, 52.98 69.73 C51.29 70.61, 49.5 71.35, 47.7 71.95 C45.89 72.54, 44.01 73, 42.14 73.3 C40.26 73.6, 38.34 73.75, 36.44 73.75 C34.54 73.75, 32.61 73.6, 30.74 73.3 C28.86 73, 26.98 72.54, 25.18 71.95 C23.37 71.35, 21.59 70.61, 19.89 69.73 C18.2 68.86, 16.56 67.84, 15.02 66.71 C13.48 65.58, 12.02 64.31, 10.67 62.95 C9.33 61.59, 8.08 60.11, 6.96 58.55 C5.84 57, 4.83 55.33, 3.97 53.62 C3.11 51.91, 2.37 50.1, 1.78 48.27 C1.2 46.44, 0.75 44.54, 0.45 42.65 C0.15 40.75, 0 38.8, 0 36.88 C0 34.95, 0.15 33.01, 0.45 31.11 C0.75 29.21, 1.2 27.31, 1.78 25.48 C2.37 23.65, 3.11 21.85, 3.97 20.14 C4.83 18.42, 5.84 16.76, 6.96 15.2 C8.08 13.65, 9.33 12.16, 10.67 10.8 C12.02 9.44, 13.48 8.17, 15.02 7.04 C16.56 5.91, 18.2 4.89, 19.89 4.02 C21.59 3.15, 23.37 2.4, 25.18 1.8 C26.98 1.21, 28.86 0.75, 30.74 0.45 C32.61 0.15, 34.54 0, 36.44 0 C38.34 0, 40.26 0.15, 42.14 0.45 C44.01 0.75, 45.89 1.21, 47.7 1.8 C49.5 2.4, 51.29 3.15, 52.98 4.02 C54.67 4.89, 56.32 5.91, 57.85 7.04 C59.39 8.17, 60.86 9.44, 62.2 10.8 C63.54 12.16, 64.8 13.65, 65.91 15.2 C67.03 16.76, 68.04 18.42, 68.9 20.14 C69.76 21.85, 70.5 23.65, 71.09 25.48 C71.68 27.31, 72.13 29.21, 72.42 31.11 C72.72 33.01, 72.8 35.92, 72.87 36.88 C72.95 37.84, 72.95 35.92, 72.87 36.88"
      stroke-width="4"
      fill="none"
    />
  </g>

  <g stroke-linecap="round">
    <g transform="translate(28.1655514479246 59.81399224351662) rotate(0 18.746495531137384 -0.9736679124459897)">
      <path
        class="ink"
        d="M0 0 C0.55 0.92, 0.36 5.44, 3.31 5.52 C6.26 5.6, 13.46 0.84, 17.71 0.49 C21.96 0.14, 25.93 3.27, 28.8 3.41 C31.67 3.54, 33.49 2.38, 34.93 1.3 C36.36 0.22, 37.08 -1.62, 37.41 -3.08 C37.74 -4.55, 36.99 -6.74, 36.91 -7.47 M0 0 C0.55 0.92, 0.36 5.44, 3.31 5.52 C6.26 5.6, 13.46 0.84, 17.71 0.49 C21.96 0.14, 25.93 3.27, 28.8 3.41 C31.67 3.54, 33.49 2.38, 34.93 1.3 C36.36 0.22, 37.08 -1.62, 37.41 -3.08 C37.74 -4.55, 36.99 -6.74, 36.91 -7.47"
        stroke-width="4"
        fill="none"
      />
    </g>
  </g>

  <g stroke-linecap="round">
    <g transform="translate(27.668976227175108 38.706739645986545) rotate(0 5.958902648996514 2.2521963516882124)">
      <path
        class="ink"
        d="M0 0 C0.63 0.7, 2.4 3.6, 3.81 4.22 C5.21 4.84, 7.09 4.33, 8.44 3.73 C9.79 3.14, 11.34 1.16, 11.92 0.65 M0 0 C0.63 0.7, 2.4 3.6, 3.81 4.22 C5.21 4.84, 7.09 4.33, 8.44 3.73 C9.79 3.14, 11.34 1.16, 11.92 0.65"
        stroke-width="4"
        fill="none"
      />
    </g>
  </g>

  <g stroke-linecap="round">
    <g transform="translate(54.31851307407601 39.19383009054491) rotate(0 5.863293015657405 -5.421566114273105)">
      <path
        class="ink"
        d="M0 0 C0.25 -1.08, 0.8 -4.76, 1.49 -6.49 C2.18 -8.23, 3.06 -9.69, 4.14 -10.39 C5.21 -11.09, 6.92 -11.23, 7.95 -10.72 C8.97 -10.2, 9.63 -9.12, 10.26 -7.31 C10.89 -5.49, 11.48 -1.06, 11.73 0.18 M0 0 C0.25 -1.08, 0.8 -4.76, 1.49 -6.49 C2.18 -8.23, 3.06 -9.69, 4.14 -10.39 C5.21 -11.09, 6.92 -11.23, 7.95 -10.72 C8.97 -10.2, 9.63 -9.12, 10.26 -7.31 C10.89 -5.49, 11.48 -1.06, 11.73 0.18"
        stroke-width="4"
        fill="none"
      />
    </g>
  </g>
</svg>
